<?xml version="1.0" standalone="no"?>
<!DOCTYPE svg PUBLIC "-//W3C//DTD SVG 20010904//EN"
 "http://www.w3.org/TR/2001/REC-SVG-20010904/DTD/svg10.dtd">
<svg version="1.0" xmlns="http://www.w3.org/2000/svg"
 width="591.000000pt" height="591.000000pt" viewBox="0 0 591.000000 591.000000"
 preserveAspectRatio="xMidYMid meet">
<metadata>
Created by potrace 1.14, written by Peter Selinger 2001-2017
</metadata>
<g transform="translate(0.000000,591.000000) scale(0.100000,-0.100000)"
fill="#000000" stroke="none">
<path d="M2118 5879 c-152 -49 -228 -92 -321 -183 -121 -118 -284 -388 -274
-454 12 -72 59 -115 126 -116 62 -1 96 22 134 93 144 270 243 364 443 419 40
11 83 28 97 37 76 49 63 181 -21 219 -47 21 -80 18 -184 -15z"/>
<path d="M2535 5635 c-184 -39 -310 -165 -314 -316 -1 -23 -12 -32 -77 -65
-71 -36 -182 -131 -236 -201 -21 -28 -67 -117 -101 -198 -14 -33 -39 -89 -55
-125 -16 -36 -92 -204 -167 -375 -75 -170 -148 -335 -162 -365 -36 -82 -47
-105 -155 -350 -55 -124 -111 -250 -125 -280 -14 -30 -31 -68 -38 -85 -40 -91
-137 -309 -164 -368 -17 -37 -31 -69 -31 -72 0 -2 -13 -32 -29 -67 -16 -35
-113 -252 -216 -483 -102 -231 -195 -440 -206 -464 -90 -195 -89 -352 1 -531
31 -62 83 -143 112 -175 10 -10 23 -37 29 -60 38 -142 184 -298 429 -457 47
-30 99 -63 115 -72 17 -9 62 -35 100 -57 243 -138 725 -340 892 -374 10 -2 48
-10 84 -19 190 -44 350 -39 464 14 33 15 85 31 116 34 31 4 81 14 110 22 30 8
60 16 66 18 7 1 43 18 80 37 105 53 197 151 256 271 26 54 47 100 47 102 0 3
18 44 41 93 22 48 47 102 54 118 7 17 30 66 50 110 21 44 57 125 82 180 68
150 82 182 129 283 24 52 44 96 44 98 0 2 15 36 34 76 18 40 52 113 75 161 22
49 41 91 41 93 0 2 23 52 50 110 28 58 50 107 50 109 0 1 20 45 44 96 24 52
62 137 86 189 23 52 52 118 65 145 13 28 33 73 45 100 13 28 42 92 66 143 24
52 44 95 44 97 0 2 18 41 39 87 31 65 246 538 351 773 54 120 64 166 64 295
-1 69 -5 136 -11 149 -8 21 -4 30 34 68 45 44 68 85 79 144 42 230 -141 471
-573 753 -72 47 -134 86 -137 86 -2 0 -40 21 -83 46 -328 196 -836 387 -1188
449 -118 21 -323 26 -400 10z m414 -266 c85 -19 286 -92 512 -185 370 -153
840 -413 938 -517 38 -42 23 -61 -42 -53 -115 15 -399 117 -717 258 -396 176
-820 434 -820 499 0 18 41 18 129 -2z m1609 -1395 c18 -10 39 -34 49 -54 26
-54 22 -84 -24 -172 -7 -15 -14 -30 -14 -33 1 -3 -22 -53 -49 -111 -28 -59
-50 -108 -50 -110 0 -1 -27 -59 -60 -129 -33 -70 -60 -128 -60 -130 0 -2 -25
-56 -55 -120 -30 -65 -55 -118 -55 -120 0 -2 -27 -60 -60 -130 -33 -70 -60
-128 -60 -130 0 -3 -56 -124 -120 -260 -20 -44 -48 -105 -61 -135 -12 -30 -31
-70 -41 -88 -10 -18 -18 -39 -18 -47 0 -8 -4 -15 -10 -15 -5 0 -10 -6 -10 -14
0 -8 -9 -31 -20 -53 -10 -21 -51 -107 -90 -192 -39 -84 -87 -187 -106 -228
-19 -41 -34 -76 -34 -78 0 -2 -22 -50 -49 -107 -27 -57 -63 -134 -81 -173 -17
-38 -42 -92 -55 -120 -38 -82 -93 -200 -170 -370 -40 -88 -96 -209 -124 -270
-71 -155 -99 -176 -251 -189 -36 -4 -76 -8 -88 -11 -12 -2 -22 -2 -22 -1 0 2
23 53 51 112 53 112 93 198 136 294 14 30 43 93 65 140 22 47 55 117 73 155
18 39 48 102 65 140 18 39 65 140 105 225 40 85 85 182 100 215 15 33 45 96
65 140 21 44 48 103 60 130 12 28 41 91 65 140 24 50 56 119 73 155 16 36 49
106 72 155 23 50 53 115 67 145 14 30 50 106 79 169 30 62 54 114 54 116 0 1
26 58 59 126 32 68 68 146 80 172 12 27 45 96 72 155 28 59 58 123 66 142 9
19 42 90 75 158 32 68 58 125 58 127 0 2 31 70 127 273 15 31 19 33 53 29 20
-2 51 -12 68 -23z"/>
<path d="M5223 4550 c-42 -25 -66 -73 -61 -119 3 -20 15 -72 28 -116 16 -56
23 -109 24 -175 1 -127 -6 -174 -54 -322 -22 -69 -40 -137 -40 -150 0 -32 38
-89 70 -106 40 -21 116 -10 149 22 41 39 118 276 135 416 8 62 8 174 1 235 -8
63 -52 231 -71 268 -20 37 -70 67 -114 67 -19 0 -49 -9 -67 -20z"/>
</g>
</svg>
